<svg xmlns="http://www.w3.org/2000/svg" version="1.1" xmlns:xlink="http://www.w3.org/1999/xlink" xmlns:svgjs="http://svgjs.dev/svgjs" width="1280" height="560" preserveAspectRatio="none" viewBox="0 0 1280 560"><g mask="url(&quot;#SvgjsMask1231&quot;)" fill="none"><rect width="1280" height="560" x="0" y="0" fill="url(&quot;#SvgjsLinearGradient1232&quot;)"></rect><path d="M1344 560L0 560 L0 433.8Q41.25 411.05, 64 452.3Q102.01 383.64, 170.66666666666666 421.65Q231.93 376.25, 277.3333333333333 437.51Q341.39 394.9, 384 458.95Q417.99 386.28, 490.66666666666663 420.27Q536.74 402.35, 554.6666666666666 448.42Q595.14 424.89, 618.6666666666666 465.36Q651.22 391.24, 725.3333333333333 423.79Q762.6 397.06, 789.3333333333333 434.32Q857.76 396.08, 895.9999999999999 464.5Q921.25 425.75, 959.9999999999999 451Q998.79 383.12, 1066.6666666666665 421.91Q1141.15 389.73, 1173.3333333333333 464.21Q1199.41 426.28, 1237.3333333333333 452.36Q1274.67 383.03, 1344 420.37z" fill="#182f5d"></path><path d="M1344 560L0 560 L0 480.05Q32.25 448.3, 64 480.54Q104.3 456.84, 128 497.13Q161.76 424.22, 234.66666666666666 457.98Q296.97 413.61, 341.3333333333333 475.91Q406.8 434.71, 448 500.17Q483.75 429.25, 554.6666666666666 465Q620.16 423.83, 661.3333333333333 489.33Q687.26 451.26, 725.3333333333333 477.19Q772.2 417.39, 831.9999999999999 464.26Q878.15 446.41, 895.9999999999999 492.56Q954.55 444.45, 1002.6666666666665 503Q1035.12 428.79, 1109.3333333333333 461.24Q1178.22 423.46, 1216 492.35Q1253.05 465.39, 1280 502.44Q1291.29 449.73, 1344 461.02z" fill="#25467d"></path><path d="M1365.3333333333335 560L0 560 L0 501.55Q66.95 461.84, 106.66666666666666 528.79Q133.01 491.13, 170.66666666666666 517.48Q210.9 451.05, 277.3333333333333 491.28Q336.7 443.98, 384 503.34Q450.58 463.25, 490.66666666666663 529.83Q537.27 469.77, 597.3333333333333 516.37Q620.25 475.28, 661.3333333333333 498.2Q709.71 482.58, 725.3333333333333 530.95Q749.86 491.48, 789.3333333333333 516Q832.04 452.04, 895.9999999999999 494.74Q946.03 480.77, 959.9999999999999 530.8Q980.84 487.64, 1023.9999999999999 508.49Q1050.49 470.98, 1088 497.48Q1157.8 460.61, 1194.6666666666667 530.41Q1219.31 491.06, 1258.6666666666667 515.7Q1299.39 449.76, 1365.3333333333335 490.48z" fill="#356cb1"></path><path d="M1344 560L0 560 L0 546.68Q43.4 483.42, 106.66666666666666 526.82Q153.78 509.93, 170.66666666666666 557.05Q209.06 531.44, 234.66666666666666 569.83Q269.65 498.15, 341.3333333333333 533.14Q381.31 509.12, 405.3333333333333 549.09Q466.93 504.02, 512 565.62Q549.32 496.27, 618.6666666666666 533.59Q656.99 507.91, 682.6666666666666 546.24Q748.05 504.96, 789.3333333333333 570.34Q816.21 533.22, 853.3333333333333 560.1Q894.34 494.44, 959.9999999999999 535.45Q1019.66 488.45, 1066.6666666666665 548.11Q1132.52 507.3, 1173.3333333333333 573.15Q1221.2 514.35, 1280 562.21Q1295.14 513.35, 1344 528.49z" fill="white"></path></g><defs><mask id="SvgjsMask1231"><rect width="1280" height="560" fill="#ffffff"></rect></mask><linearGradient x1="100%" y1="50%" x2="0%" y2="50%" gradientUnits="userSpaceOnUse" id="SvgjsLinearGradient1232"><stop stop-color="#0e2a47" offset="0"></stop><stop stop-color="rgba(9, 10, 11, 1)" offset="1"></stop></linearGradient></defs></svg>