<svg xmlns="http://www.w3.org/2000/svg" version="1.1" xmlns:xlink="http://www.w3.org/1999/xlink" xmlns:svgjs="http://svgjs.dev/svgjs" width="1280" height="560" preserveAspectRatio="none" viewBox="0 0 1280 560"><g mask="url(&quot;#SvgjsMask1250&quot;)" fill="none"><rect width="1280" height="560" x="0" y="0" fill="url(&quot;#SvgjsLinearGradient1251&quot;)"></rect><path d="M1301.3333333333333 560L0 560 L0 112.87Q127.78 133.99, 106.66666666666666 261.77Q104.44 195.54, 170.66666666666666 193.32Q186.34 145, 234.66666666666666 160.67Q277.75 97.08, 341.3333333333333 140.16Q378.53 113.36, 405.3333333333333 150.55Q477.05 158.26, 469.3333333333333 229.98Q507 203.65, 533.3333333333333 241.32Q572.92 216.91, 597.3333333333333 256.49Q635.35 230.51, 661.3333333333333 268.53Q666.57 209.76, 725.3333333333333 215Q783.97 166.97, 831.9999999999999 225.61Q860.77 147.72, 938.6666666666665 176.49Q961.71 92.87, 1045.3333333333333 115.91Q1075.86 82.44, 1109.3333333333333 112.96Q1158.63 98.26, 1173.3333333333333 147.56Q1247.7 157.93, 1237.3333333333333 232.29Q1278.11 209.07, 1301.3333333333333 249.85z" fill="rgba(164, 170, 184, 1)"></path><path d="M1322.6666666666667 560L0 560 L0 225.23Q32.18 193.41, 64 225.59Q129.89 227.48, 128 293.37Q191.77 293.14, 192 356.91Q211.96 312.87, 256 332.83Q295.6 265.76, 362.66666666666663 305.36Q376.02 254.72, 426.66666666666663 268.07Q487.82 222.56, 533.3333333333333 283.72Q569.23 212.95, 639.9999999999999 248.85Q663 207.85, 703.9999999999999 230.85Q754.93 217.78, 767.9999999999999 268.71Q860.78 254.83, 874.6666666666665 347.61Q897.33 306.27, 938.6666666666665 328.93Q971.86 255.46, 1045.3333333333333 288.66Q1107.51 244.17, 1152 306.35Q1165.42 213.11, 1258.6666666666667 226.53Q1313.39 217.25, 1322.6666666666667 271.97z" fill="rgba(51, 118, 177, 1)"></path><path d="M1322.6666666666665 560L0 560 L0 340.79Q38.48 315.27, 64 353.76Q129.71 312.8, 170.66666666666666 378.51Q268.13 369.3, 277.3333333333333 466.76Q338.37 421.13, 384 482.16Q405.84 397.33, 490.66666666666663 419.17Q559.38 381.21, 597.3333333333333 449.92Q600.37 346.29, 703.9999999999999 349.33Q766.49 305.16, 810.6666666666665 367.65Q900.68 351, 917.3333333333331 441.02Q962.47 422.16, 981.3333333333331 467.3Q986.12 408.09, 1045.333333333333 412.87Q1107.11 367.98, 1151.9999999999998 429.76Q1199.22 412.98, 1215.9999999999998 460.2Q1216.19 353.72, 1322.6666666666665 353.91z" fill="#356cb1"></path><path d="M1301.3333333333333 560L0 560 L0 561.88Q4.7 459.91, 106.66666666666666 464.61Q132.66 426.6, 170.66666666666666 452.59Q225.05 442.98, 234.66666666666666 497.36Q307.88 506.57, 298.66666666666663 579.78Q271.75 488.86, 362.66666666666663 461.94Q434.2 426.81, 469.33333333333326 498.34Q516.29 481.3, 533.3333333333333 528.26Q560.19 491.12, 597.3333333333333 517.97Q598.67 455.31, 661.3333333333333 456.65Q730.95 462.27, 725.3333333333333 531.89Q776.64 519.2, 789.3333333333333 570.51Q831.63 548.81, 853.3333333333333 591.1Q878.6 509.7, 959.9999999999999 534.96Q1033.59 501.88, 1066.6666666666665 575.47Q1112.39 514.53, 1173.3333333333333 560.25Q1192.39 515.31, 1237.3333333333333 534.37Q1255.63 488.66, 1301.3333333333333 506.96z" fill="white"></path></g><defs><mask id="SvgjsMask1250"><rect width="1280" height="560" fill="#ffffff"></rect></mask><linearGradient x1="100%" y1="50%" x2="0%" y2="50%" gradientUnits="userSpaceOnUse" id="SvgjsLinearGradient1251"><stop stop-color="#0e2a47" offset="0"></stop><stop stop-color="rgba(9, 10, 11, 1)" offset="1"></stop></linearGradient></defs></svg>